<?xml version="1.0" encoding="utf-8"?>
<!-- Generator: Adobe Illustrator 23.0.2, SVG Export Plug-In . SVG Version: 6.00 Build 0)  -->
<svg version="1.1" id="Ebene_1" focusable="false" xmlns="http://www.w3.org/2000/svg" xmlns:xlink="http://www.w3.org/1999/xlink"
	 x="0px" y="0px" viewBox="0 0 384 512" style="enable-background:new 0 0 384 512;" xml:space="preserve">
<style type="text/css">
	.st0{fill:#169FE6;}
	.st1{fill:#FFFFFF;}
</style>
<path class="st0" d="M0,512V48C0,21.5,21.5,0,48,0h288c26.5,0,48,21.5,48,48v464L192,400L0,512z"/>
<path class="st1" d="M178.7,95.8L148.5,157l-67.6,9.9c-12.1,1.8-17,16.7-8.2,25.3l48.9,47.6l-11.6,67.3
	c-2.1,12.2,10.7,21.3,21.5,15.6l60.5-31.8l60.5,31.8c10.7,5.6,23.5-3.4,21.5-15.6l-11.6-67.3l48.9-47.6c8.8-8.6,3.9-23.5-8.2-25.3
	l-67.6-9.9l-30.2-61.3C199.9,84.9,184.2,84.7,178.7,95.8L178.7,95.8z"/>
</svg>
